# xmcd
#
# Track frame offsets: 
#        150
#        20632
#        44757
#        70466
#        87461
#        107380
#        134869
#        158488
#        184922
#        209306
#
# Disc length: 3224 seconds
#
# Revision: 0
# Processed by: cddbd v1.5.2PL0 Copyright (c) Steve Scherf et al.
# Submitted via: ExactAudioCopy v1.3
#
DISCID=930c960a
DTITLE=Todd Wolfe - Borrowed Time
DYEAR=2009
DGENRE=Blues
TTITLE0=Ready For Love
TTITLE1=Baby I'm Down
TTITLE2=Cold Black Night
TTITLE3=You're Not The Only One
TTITLE4=California
TTITLE5=If This Is Love
TTITLE6=Big Nose Kate (Borrowed Time)
TTITLE7=Who's Been Talking
TTITLE8=Oh Well
TTITLE9=Tears Of Rage
EXTD=
EXTT0=
EXTT1=
EXTT2=
EXTT3=
EXTT4=
EXTT5=
EXTT6=
EXTT7=
EXTT8=
EXTT9=
PLAYORDER=
